<svg width="24" height="24" viewBox="0 0 24 24" fill="none" xmlns="http://www.w3.org/2000/svg">
<path d="M21.3408 1.5H2.65922C2.35181 1.50012 2.05703 1.6223 1.83966 1.83966C1.6223 2.05703 1.50012 2.35181 1.5 2.65922V21.3408C1.50012 21.6482 1.6223 21.943 1.83966 22.1603C2.05703 22.3777 2.35181 22.4999 2.65922 22.5H12V14.25H9.48984V11.25H12V8.85938C12 6.14719 13.8811 4.67062 16.3041 4.67062C17.4633 4.67062 18.7102 4.75781 18.9998 4.79625V7.62891H17.0695C15.7514 7.62891 15.5002 8.25234 15.5002 9.17109V11.25H18.6408L18.2306 14.25H15.5002V22.5H21.3408C21.6482 22.4999 21.943 22.3777 22.1603 22.1603C22.3777 21.943 22.4999 21.6482 22.5 21.3408V2.65922C22.4999 2.35181 22.3777 2.05703 22.1603 1.83966C21.943 1.6223 21.6482 1.50012 21.3408 1.5Z" fill="#093F76"/>
</svg>
