<svg width="24" height="24" viewBox="0 0 24 24" fill="none" xmlns="http://www.w3.org/2000/svg">
<path d="M16.3748 3.24984C17.5342 3.25331 18.6451 3.71539 19.4648 4.53517C20.2846 5.35495 20.7467 6.46582 20.7502 7.62516V16.3748C20.7467 17.5342 20.2846 18.6451 19.4648 19.4648C18.6451 20.2846 17.5342 20.7467 16.3748 20.7502H7.62516C6.46582 20.7467 5.35495 20.2846 4.53517 19.4648C3.71539 18.6451 3.25331 17.5342 3.24984 16.3748V7.62516C3.25331 6.46582 3.71539 5.35495 4.53517 4.53517C5.35495 3.71539 6.46582 3.25331 7.62516 3.24984H16.3748ZM16.3748 1.5H7.62516C4.25625 1.5 1.5 4.25625 1.5 7.62516V16.3748C1.5 19.7437 4.25625 22.5 7.62516 22.5H16.3748C19.7437 22.5 22.5 19.7437 22.5 16.3748V7.62516C22.5 4.25625 19.7437 1.5 16.3748 1.5Z" fill="url(#paint0_linear)"/>
<path d="M17.6873 7.6251C17.4277 7.6251 17.1739 7.54813 16.9581 7.40391C16.7422 7.25969 16.574 7.0547 16.4747 6.81487C16.3753 6.57505 16.3493 6.31115 16.4 6.05655C16.4506 5.80195 16.5756 5.56808 16.7592 5.38453C16.9427 5.20097 17.1766 5.07597 17.4312 5.02532C17.6858 4.97468 17.9497 5.00067 18.1895 5.10001C18.4294 5.19935 18.6343 5.36758 18.7786 5.58342C18.9228 5.79926 18.9998 6.05302 18.9998 6.3126C19.0001 6.48507 18.9664 6.65591 18.9006 6.81531C18.8348 6.97472 18.7381 7.11956 18.6162 7.24151C18.4942 7.36346 18.3494 7.46012 18.19 7.52595C18.0306 7.59178 17.8597 7.62547 17.6873 7.6251Z" fill="url(#paint1_linear)"/>
<path d="M11.9999 8.49984C12.6922 8.49984 13.3689 8.70512 13.9445 9.08973C14.5201 9.47433 14.9688 10.021 15.2337 10.6605C15.4986 11.3001 15.5679 12.0039 15.4328 12.6828C15.2978 13.3618 14.9644 13.9855 14.4749 14.475C13.9854 14.9645 13.3618 15.2978 12.6828 15.4329C12.0038 15.568 11.3001 15.4986 10.6605 15.2337C10.0209 14.9688 9.47428 14.5202 9.08968 13.9446C8.70508 13.369 8.4998 12.6923 8.4998 12C8.50079 11.072 8.86987 10.1823 9.52606 9.52611C10.1823 8.86992 11.072 8.50084 11.9999 8.49984ZM11.9999 6.75C10.9616 6.75 9.94657 7.05791 9.08321 7.63478C8.21985 8.21166 7.54695 9.0316 7.14959 9.99091C6.75223 10.9502 6.64826 12.0058 6.85083 13.0242C7.05341 14.0426 7.55342 14.9781 8.28764 15.7123C9.02187 16.4465 9.95733 16.9466 10.9757 17.1491C11.9941 17.3517 13.0497 17.2477 14.009 16.8504C14.9683 16.453 15.7883 15.7801 16.3652 14.9167C16.942 14.0534 17.2499 13.0384 17.2499 12C17.2499 10.6076 16.6968 9.27226 15.7123 8.28769C14.7277 7.30312 13.3923 6.75 11.9999 6.75Z" fill="url(#paint2_linear)"/>
<defs>
<linearGradient id="paint0_linear" x1="23" y1="2" x2="1.99997" y2="22" gradientUnits="userSpaceOnUse">
<stop stop-color="#9F28AD"/>
<stop offset="0.505037" stop-color="#F44436"/>
<stop offset="1" stop-color="#FEB50C"/>
</linearGradient>
<linearGradient id="paint1_linear" x1="23" y1="2" x2="1.99997" y2="22" gradientUnits="userSpaceOnUse">
<stop stop-color="#9F28AD"/>
<stop offset="0.505037" stop-color="#F44436"/>
<stop offset="1" stop-color="#FEB50C"/>
</linearGradient>
<linearGradient id="paint2_linear" x1="23" y1="2" x2="1.99997" y2="22" gradientUnits="userSpaceOnUse">
<stop stop-color="#9F28AD"/>
<stop offset="0.505037" stop-color="#F44436"/>
<stop offset="1" stop-color="#FEB50C"/>
</linearGradient>
</defs>
</svg>
